<?xml version="1.0" encoding="UTF-8"?>
<!DOCTYPE svg PUBLIC "-//W3C//DTD SVG 1.1//EN" "http://www.w3.org/Graphics/SVG/1.1/DTD/svg11.dtd">
<!-- Creator: CorelDRAW 2019 (64-Bit) -->
<svg xmlns="http://www.w3.org/2000/svg" xml:space="preserve" width="3.61856in" height="1.01005in" version="1.1" style="shape-rendering:geometricPrecision; text-rendering:geometricPrecision; image-rendering:optimizeQuality; fill-rule:evenodd; clip-rule:evenodd"
viewBox="0 0 3618.56 1010.05"
 xmlns:xlink="http://www.w3.org/1999/xlink"
 xmlns:xodm="http://www.corel.com/coreldraw/odm/2003">
 <defs>
  <style type="text/css">
   <![CDATA[
    .fil4 {fill:none}
    .fil1 {fill:#302F2F}
    .fil0 {fill:dimgray}
    .fil2 {fill:#FF5E14}
    .fil3 {fill:#2B2A29;fill-rule:nonzero}
   ]]>
  </style>
 </defs>
 <g id="Layer_x0020_1">
  <metadata id="CorelCorpID_0Corel-Layer"/>
  <path class="fil0" d="M706.14 71.89l622.27 710.98 -453.91 0 0 -54.4 65.5 -1.04c8.98,0.24 18.05,-3.06 24.93,-9.89 13.33,-13.26 13.39,-34.81 0.13,-48.14l-251.06 -251.17 -0.13 -0.13c-0.21,-0.21 -0.42,-0.41 -0.63,-0.61l-0.04 -0.03 -0.57 -0.52 -0.04 -0.04 -0.02 -0.01 -0.52 -0.46 -0.11 -0.1 -0 -0 -0.11 -0.09 -0.47 -0.39 -0.08 -0.07 -0.04 -0.03 -0.02 -0.02 -0.45 -0.36 -0.12 -0.09 -0.05 -0.04 -0.07 -0.06 -0.48 -0.36 -0.12 -0.09 -0.01 -0.01 -0.11 -0.08 -0.51 -0.36 -0.17 -0.11 -0.43 -0.29 -0.13 -0.08 -0.13 -0.08 -0.13 -0.08 -0.25 -0.16 -0.13 -0.08 -0.26 -0.16 -0.13 -0.07 -0.13 -0.08 -0.13 -0.07 -0.04 -0.02 -0.35 -0.21 -0.13 -0.07 -0.26 -0.15 -0.13 -0.07 -0.13 -0.07 -0.13 -0.07 0 -340.44z"/>
  <path class="fil1" d="M673.13 71.89l-622.27 710.98 454.6 0 0 -53.73 -67.1 0c-18.85,0 -34.14,-15.29 -34.14,-34.14 0,-10.33 4.58,-19.58 11.82,-25.84l249.68 -250.94 0.54 -0.53 0.09 -0.09 0.01 -0.01 0 0c0.2,-0.2 0.41,-0.39 0.62,-0.58l0.03 -0.02c0.19,-0.17 0.37,-0.33 0.56,-0.49l0.07 -0.06 0.04 -0.04c0.19,-0.16 0.37,-0.32 0.56,-0.48l0.06 -0.05 0.06 -0.04 0.57 -0.46 0.04 -0.04 0.07 -0.06 0.46 -0.35 0.11 -0.09 0.03 -0.02 0.09 -0.06 0.5 -0.36 0.2 -0.15 0.12 -0.08 0.36 -0.24 0.12 -0.08 0 0 0.12 -0.08 0.36 -0.24 0.12 -0.07 0.11 -0.07 0.02 -0.01 0.12 -0.07 0.37 -0.22 0.12 -0.07 0.02 -0.02 0.15 -0.09 0.57 -0.33 0 -340.69z"/>
  <polygon class="fil2" points="689.85,442.23 940.91,693.41 840.35,695.01 840.35,938.16 539.59,938.16 539.59,695.01 438.35,695.01 "/>
  <path class="fil3" d="M1492.66 781.96l0 -87.54 248.44 -354.13 -238.06 0 0 -101.74 387.78 0 0 87.54 -250.67 354.13 250.67 0 0 101.74 -398.16 0zm453.89 -184.42c0,-28.39 5.39,-54.95 16.04,-79.53 10.65,-24.45 24.71,-44.82 42.46,-60.86 17.75,-16.04 37.73,-28.65 60.07,-37.72 22.35,-9.07 45.35,-13.67 69.01,-13.67 9.99,0 20.64,1.05 32.07,3.28 11.44,2.1 24.71,7.23 39.7,14.98 14.99,7.89 26.95,18.01 35.62,30.63l0 -41.01 108.05 0 0 368.32 -108.05 0 0 -41.93c-10.52,15.91 -26.68,28.13 -48.37,36.41 -21.69,8.41 -41.41,12.62 -59.02,12.62 -31.94,0 -61.91,-7.63 -90.17,-22.74 -28.26,-15.12 -51.53,-37.59 -69.93,-67.17 -18.27,-29.71 -27.47,-63.49 -27.47,-101.61zm141.44 -62.83c-18.53,16.56 -27.87,37.46 -27.87,62.83 0,25.5 9.33,46.4 27.87,62.83 18.67,16.43 40.09,24.58 64.15,24.58 23.92,0 44.82,-8.02 62.57,-24.06 17.88,-16.04 26.81,-37.07 26.81,-63.36 0,-26.42 -8.94,-47.59 -26.81,-63.62 -17.74,-16.04 -38.65,-24.06 -62.57,-24.06 -24.06,0 -45.48,8.28 -64.15,24.84zm363.19 247.26l0 -368.32 108.84 0 0 88.46c8.68,-31.68 23,-55.6 42.72,-71.9 19.85,-16.3 40.22,-24.45 61.26,-24.45 24.71,0 45.74,4.47 63.23,13.28l-19.72 98.06c-15.12,-7.49 -33.92,-11.17 -56.26,-11.17 -31.29,0 -54.29,12.22 -69.15,36.67 -14.72,24.45 -22.08,61.26 -22.08,110.42l0 128.95 -108.84 0zm305.22 -185.34c0,-37.46 8.67,-70.85 26.03,-100.3 17.35,-29.31 40.48,-51.79 69.4,-67.3 28.92,-15.51 60.73,-23.26 95.43,-23.26 34.7,0 66.52,7.75 95.43,23.4 29.05,15.64 52.31,38.25 69.93,67.83 17.48,29.71 26.29,62.83 26.29,99.64 0,36.81 -8.81,70.06 -26.29,99.9 -17.61,29.84 -40.88,52.58 -69.93,68.22 -28.92,15.64 -60.73,23.53 -95.43,23.53 -34.7,0 -66.51,-7.76 -95.43,-23.27 -28.92,-15.64 -52.05,-38.12 -69.4,-67.56 -17.35,-29.44 -26.03,-62.96 -26.03,-100.82zm108.05 0c0,24.45 8.02,44.43 24.06,59.81 16.04,15.38 35.62,23 58.76,23 23.66,0 43.51,-7.62 59.55,-22.87 16.04,-15.25 24.06,-35.23 24.06,-59.94 0,-23.93 -8.15,-43.64 -24.32,-59.02 -16.17,-15.38 -35.89,-23 -59.28,-23 -23.13,0 -42.72,7.62 -58.76,23 -16.04,15.38 -24.06,35.09 -24.06,59.02zm353.07 185.34l0 -368.32 108.84 0 0 54.81c9.86,-18.8 24.58,-33.91 44.43,-45.48 19.72,-11.43 40.49,-17.22 62.44,-17.22 42.33,0 75.32,13.28 98.98,39.7 23.66,26.42 35.49,65.33 35.49,116.59l0 219.91 -108.84 0 0 -194.81c0,-23.4 -5.91,-41.41 -17.61,-53.89 -11.83,-12.49 -27.34,-18.67 -46.66,-18.67 -45.48,0 -68.22,24.71 -68.22,74.14l0 193.23 -108.84 0z"/>
 </g>
 <g id="Layer_x0020_1_0">
  <metadata id="CorelCorpID_1Corel-Layer"/>
  <rect class="fil4" x="-0" y="-0" width="3618.56" height="1010.05"/>
 </g>
</svg>
